<?xml version="1.0" encoding="UTF-8" standalone="no"?>
<!-- Created with Inkscape (http://www.inkscape.org/) -->

<svg
   width="71.705002mm"
   height="58.401001mm"
   viewBox="0 0 71.705002 58.401001"
   version="1.1"
   id="svg1"
   sodipodi:docname="logo.svg"
   inkscape:version="1.3.2 (091e20e, 2023-11-25, custom)"
   inkscape:export-filename="logo.png"
   inkscape:export-xdpi="96"
   inkscape:export-ydpi="96"
   xmlns:inkscape="http://www.inkscape.org/namespaces/inkscape"
   xmlns:sodipodi="http://sodipodi.sourceforge.net/DTD/sodipodi-0.dtd"
   xmlns="http://www.w3.org/2000/svg"
   xmlns:svg="http://www.w3.org/2000/svg">
  <sodipodi:namedview
     id="namedview1"
     pagecolor="#ffffff"
     bordercolor="#000000"
     borderopacity="0.25"
     inkscape:showpageshadow="2"
     inkscape:pageopacity="0.0"
     inkscape:pagecheckerboard="0"
     inkscape:deskcolor="#d1d1d1"
     inkscape:document-units="mm"
     inkscape:zoom="2.0000001"
     inkscape:cx="115.49999"
     inkscape:cy="174.24999"
     inkscape:window-width="1920"
     inkscape:window-height="1027"
     inkscape:window-x="1042"
     inkscape:window-y="262"
     inkscape:window-maximized="1"
     inkscape:current-layer="layer1" />
  <defs
     id="defs1" />
  <g
     inkscape:label="Layer 1"
     inkscape:groupmode="layer"
     id="layer1"
     transform="translate(-77.717298,-7.5944928)">
    <path
       id="text3"
       style="font-size:19.4028px;font-family:Pacifico;-inkscape-font-specification:Pacifico;letter-spacing:-0.306917px;word-spacing:1.85208px;stroke-width:0.25;fill:#262626;fill-opacity:1"
       d="m 126.27695,10.383189 c -0.142,-0.01648 -0.28972,-0.01366 -0.44338,0.0083 -1.08844,0.155336 -1.9274,1.006871 -2.51664,2.554366 -0.57645,1.545676 -0.92694,3.346662 -1.05162,5.402771 -0.11187,2.05428 -0.0566,3.862748 0.1664,5.424991 0.10121,0.709197 0.25364,1.341703 0.4408,1.921846 -0.36325,0.469921 -0.78273,0.889594 -1.26504,1.253154 -0.67325,0.501143 -1.29807,0.792644 -1.87431,0.874881 -0.89637,0.127925 -1.54659,-0.07986 -1.95078,-0.623217 1.45802,-0.587002 2.4557,-1.238947 2.99362,-1.955953 0.54888,-0.731636 0.76068,-1.539026 0.63458,-2.42259 -0.10782,-0.755521 -0.41727,-1.318925 -0.92759,-1.690337 -0.51214,-0.384229 -1.13935,-0.523541 -1.88206,-0.417546 -0.83234,0.118787 -1.54936,0.45001 -2.15129,0.993221 -0.5891,0.541393 -1.0147,1.222489 -1.2764,2.043803 -0.26353,0.808508 -0.33229,1.654781 -0.20619,2.538347 0.0521,0.364863 0.13512,0.699767 0.24236,1.011307 -0.15038,0.189863 -0.30187,0.382587 -0.43822,0.525549 -0.37505,0.393251 -0.83792,0.629391 -1.38854,0.707972 -0.67868,0.09686 -1.21645,-0.101118 -1.61334,-0.593249 -0.38409,-0.493969 -0.67087,-1.406579 -0.86093,-2.738335 -0.0512,-0.358542 -0.10993,-0.859867 -0.1757,-1.503784 l 2.34353,-0.334347 c 1.44699,-0.206506 2.10737,-0.751477 1.98127,-1.635041 -0.0347,-0.243304 -0.10324,-0.403746 -0.20567,-0.480592 -0.10243,-0.07684 -0.25608,-0.100552 -0.46095,-0.07131 l -2.15129,0.306959 c 1.45452,-1.71018 2.04026,-3.557474 1.75699,-5.542297 -0.10234,-0.717094 -0.34128,-1.290885 -0.71623,-1.720826 -0.37495,-0.42994 -0.83109,-0.606438 -1.36891,-0.529683 -0.72991,0.104168 -1.36579,0.547808 -1.90738,1.330668 -0.52877,0.781041 -0.93407,1.786073 -1.21594,3.01532 -0.28189,1.229247 -0.43137,2.563717 -0.44804,4.003374 l -1.0945,0.156579 c -0.57625,0.08224 -0.81342,0.481798 -0.71108,1.198893 0.0439,0.307331 0.13968,0.522338 0.28785,0.644922 0.16096,0.120757 0.43387,0.153527 0.81803,0.0987 l 0.74879,-0.106969 c 0.0438,0.581718 0.10615,1.154285 0.18656,1.717724 0.0701,0.490982 0.15984,0.943447 0.26716,1.362191 -0.01,0.01397 -0.0225,0.02021 -0.032,0.03514 -0.48852,0.788354 -0.88281,1.367366 -1.18287,1.736845 -0.30188,0.356673 -0.57474,0.552322 -0.81804,0.587043 -0.15367,0.02193 -0.28989,-0.01772 -0.40877,-0.118338 -0.10609,-0.102455 -0.17257,-0.249235 -0.19999,-0.441317 -0.0822,-0.576234 -0.0813,-1.62211 0.003,-3.136759 0.0477,-1.039033 0.0523,-1.692733 0.0139,-1.961637 -0.064,-0.448191 -0.40968,-0.627501 -1.03715,-0.537952 -0.29452,0.04203 -0.57245,0.107805 -0.83406,0.197404 -0.10423,-0.272581 -0.21521,-0.452713 -0.33228,-0.540536 -0.10608,-0.102456 -0.29963,-0.133739 -0.58136,-0.09353 -0.88356,0.126098 -1.6822,0.527326 -2.39571,1.204061 -0.70255,0.662103 -1.225126,1.488285 -1.567347,2.477885 -0.344039,0.976793 -0.442823,1.977459 -0.296623,3.001884 0.02224,0.155858 0.05902,0.29679 0.09302,0.4408 -0.331782,0.319206 -0.701616,0.508163 -1.109493,0.566373 -0.460985,0.06579 -0.889079,-0.04931 -1.284159,-0.345715 -0.396917,-0.30921 -0.853909,-0.858432 -1.371493,-1.646927 -0.367613,-0.561651 -0.684088,-0.993138 -0.949296,-1.295012 -0.267035,-0.314679 -0.577144,-0.564498 -0.930175,-0.749308 -0.340226,-0.186637 -0.761995,-0.303012 -1.265039,-0.348816 1.350097,-0.610799 2.532408,-1.621848 3.546037,-3.033924 1.013617,-1.412074 1.689565,-3.220738 2.0283,-5.424991 0.02198,-0.212197 0.02674,-0.363048 0.01395,-0.452686 -0.04203,-0.294526 -0.176776,-0.503961 -0.403594,-0.628386 -0.215828,-0.13906 -0.502903,-0.182944 -0.861445,-0.131775 -0.422579,0.06031 -0.761136,0.206446 -1.015442,0.438733 -0.241502,0.23046 -0.39429,0.533482 -0.458371,0.908472 -0.349676,2.035953 -0.91676,3.691197 -1.701704,4.966105 -0.773966,1.260277 -1.899216,2.07424 -3.375504,2.441711 l 0.01189,-5.273579 c 0.601855,-0.08589 0.852404,-0.481168 0.751892,-1.185457 -0.07493,-0.525022 -0.439628,-0.839012 -1.094507,-0.941546 -0.601819,-0.09703 -1.150666,-0.142879 -1.646411,-0.137459 -0.482927,0.0036 -1.012816,0.04696 -1.58905,0.129192 -1.318951,0.188233 -2.397055,0.551123 -3.234945,1.088823 -0.839719,0.524883 -1.436404,1.15222 -1.789554,1.882054 -0.340354,0.728019 -0.453096,1.495453 -0.337964,2.302185 0.111479,0.781133 0.407824,1.483511 0.888834,2.107366 0.243252,0.33114 0.570021,0.467239 0.979785,0.40876 0.320136,-0.04569 0.593247,-0.189029 0.820105,-0.430464 0.237846,-0.256071 0.336828,-0.52495 0.296623,-0.80667 -0.01828,-0.128054 -0.06025,-0.239729 -0.126091,-0.334863 -0.149969,-0.226846 -0.277127,-0.430733 -0.381372,-0.611849 -0.09326,-0.195741 -0.162568,-0.453977 -0.208256,-0.774113 -0.100512,-0.704289 0.104517,-1.281987 0.614949,-1.733744 0.508615,-0.464574 1.306751,-0.774838 2.395203,-0.930176 0.294525,-0.04203 0.611398,-0.06739 0.949813,-0.07648 l 0.02119,4.406965 c -0.0037,0.248784 -0.0056,0.693003 -0.0057,1.333252 l -0.63407,0.09043 c -0.256109,0.03655 -0.459238,0.170021 -0.609264,0.400492 -0.139059,0.21584 -0.184459,0.490265 -0.136943,0.823206 0.04203,0.294525 0.158072,0.513061 0.348299,0.655774 0.190228,0.142703 0.432563,0.193445 0.727087,0.151412 l 0.307475,-0.04393 -0.0088,1.862935 c -0.01478,0.995134 -0.173751,1.756266 -0.47749,2.283065 -0.292751,0.512166 -0.695472,0.80488 -1.207679,0.877979 -0.448191,0.06396 -0.846944,-0.02942 -1.196309,-0.280083 -0.336556,-0.252482 -0.756391,-0.721613 -1.259355,-1.407666 -0.131673,-0.190268 -0.260325,-0.315819 -0.386539,-0.376204 -0.128042,-0.07319 -0.275363,-0.09766 -0.441834,-0.0739 -0.281719,0.04021 -0.492414,0.213593 -0.631486,0.520899 -0.139062,0.307294 -0.180915,0.652983 -0.12609,1.037146 0.03838,0.268913 0.118797,0.512482 0.241329,0.730188 0.363946,0.627507 0.91644,1.110483 1.657263,1.449003 0.751791,0.323894 1.569515,0.422725 2.45308,0.296628 1.357367,-0.193716 2.362643,-0.74863 3.015837,-1.665018 0.665987,-0.918223 1.002703,-2.312111 1.010274,-4.181655 l 0.0083,-1.451591 c 0.37683,-0.01459 0.699537,0.05027 0.968415,0.194821 0.26706,0.131737 0.552668,0.391424 0.856279,0.77928 0.314579,0.373225 0.724097,0.955296 1.228865,1.74563 0.693153,1.103151 1.381174,1.893368 2.063441,2.370916 0.680429,0.464739 1.494118,0.629774 2.441711,0.494538 0.857954,-0.122442 1.572736,-0.427114 2.143538,-0.913639 0.127761,-0.112075 0.25356,-0.235506 0.37827,-0.364318 0.0104,0.0098 0.0179,0.02244 0.0284,0.03205 0.55603,0.508625 1.23126,0.706036 2.0252,0.592729 1.01162,-0.144372 1.77329,-0.801807 2.28565,-1.972498 0.25055,0.473835 0.56978,0.833308 0.95756,1.078491 0.39876,0.230555 0.80939,0.315593 1.23197,0.255285 0.55063,-0.07858 1.08878,-0.383968 1.61385,-0.916231 0.47114,-0.477442 0.9026,-1.038154 1.29863,-1.673278 0.8171,1.331928 2.03668,1.883284 3.66025,1.651577 0.84514,-0.120615 1.56345,-0.445508 2.15439,-0.974099 0.28101,-0.251353 0.54479,-0.530471 0.79478,-0.83354 0.0888,0.08055 0.18082,0.157967 0.27854,0.229964 0.84685,0.623811 1.9431,0.839908 3.28765,0.648021 0.98601,-0.140718 1.87283,-0.515944 2.66134,-1.124996 0.50206,-0.382752 0.91402,-0.772716 1.25522,-1.168411 0.0327,0.04847 0.0592,0.106166 0.093,0.152963 0.69683,0.945858 1.60889,1.338529 2.73575,1.177708 0.81954,-0.116959 1.51839,-0.439066 2.09652,-0.965829 0.20224,-0.180908 0.39363,-0.379874 0.57981,-0.587561 0.0775,0.116291 0.1578,0.229649 0.2496,0.332279 0.44628,0.472023 0.95751,0.666698 1.53375,0.584459 0.51221,-0.0731 0.96521,-0.37921 1.35857,-0.918809 0.39156,-0.55239 0.64959,-1.307985 0.77412,-2.266527 0.0109,0.900028 0.005,1.593384 -0.0171,2.079976 l 0.006,0.450102 c -0.0285,0.02912 -0.0524,0.05526 -0.0806,0.08423 -0.14359,-0.01547 -0.29261,-0.01325 -0.447,0.0088 -1.10126,0.157166 -1.94447,1.022174 -2.53008,2.595189 -0.10821,0.293513 -0.20736,0.599702 -0.29868,0.91623 -0.38315,1.569484 -0.60165,3.321782 -0.70694,4.339778 0.005,0.01656 0.007,0.03609 0.0119,0.05219 -0.007,0.110791 -0.02,0.212583 -0.0253,0.325048 -0.0281,0.672203 -0.0322,1.330517 -0.0253,1.981796 -0.0382,-0.182486 -0.0952,-0.319301 -0.18138,-0.383965 -0.10243,-0.0768 -0.25607,-0.101066 -0.46095,-0.07183 l -2.15129,0.307475 c 1.45452,-1.710204 2.04026,-3.557973 1.75699,-5.542812 -0.10234,-0.717104 -0.34077,-1.290369 -0.71571,-1.720307 -0.37495,-0.429949 -0.83161,-0.606957 -1.36943,-0.530202 -0.7299,0.104167 -1.3658,0.547799 -1.90738,1.330667 -0.52878,0.781052 -0.93406,1.786062 -1.21594,3.015318 -0.28188,1.229256 -0.43086,2.563708 -0.44752,4.003373 l -1.09502,0.156579 c -0.57625,0.08224 -0.81341,0.481793 -0.71107,1.198898 0.0439,0.307326 0.14019,0.522332 0.28835,0.644919 0.16096,0.12076 0.43336,0.153524 0.81752,0.0987 l 0.74931,-0.106966 c 0.0438,0.581724 0.10563,1.154285 0.18604,1.717725 0.0697,0.488709 0.15947,0.939374 0.26613,1.356508 -0.0101,0.01427 -0.0213,0.02559 -0.031,0.04082 -0.47755,0.773732 -0.86628,1.34567 -1.16633,1.715148 -0.30006,0.369479 -0.56532,0.570684 -0.79582,0.603579 -0.2433,0.03472 -0.43109,-0.04342 -0.56276,-0.233575 -0.13168,-0.190274 -0.22474,-0.477295 -0.27957,-0.861452 -0.0713,-0.499409 -0.0536,-1.475529 0.0527,-2.927987 0.077,-1.200014 0.0927,-1.959828 0.047,-2.279964 -0.0621,-0.435388 -0.41973,-0.606867 -1.0728,-0.513664 -0.42257,0.06031 -0.71921,0.181129 -0.88935,0.362254 -0.17016,0.181076 -0.28378,0.484837 -0.34055,0.911052 -0.11902,0.814031 -0.19003,1.686293 -0.21394,2.617411 -0.0129,0.91648 0.0216,1.662894 0.10387,2.239145 0.003,0.01802 0.007,0.03325 0.01,0.05116 -0.19152,0.275714 -0.365,0.508397 -0.51573,0.687298 -0.30189,0.356669 -0.58106,0.553597 -0.83716,0.590146 -0.37136,0.053 -0.59353,-0.176627 -0.66663,-0.688847 -0.0512,-0.358557 -0.0347,-1.112567 0.0496,-2.261362 0.0953,-1.34636 0.10745,-2.268889 0.0362,-2.768309 -0.11878,-0.832346 -0.59444,-1.189002 -1.42678,-1.070215 -0.67869,0.09686 -1.35728,0.559441 -2.03605,1.388032 -0.67881,0.828484 -1.22576,2.076063 -1.64125,3.742399 0.006,-0.235978 0.0264,-0.591502 0.063,-1.067111 0.0898,-1.110384 0.1055,-1.870711 0.047,-2.280489 -0.0603,-0.422469 -0.20087,-0.722729 -0.42219,-0.900201 -0.20852,-0.179298 -0.53729,-0.237078 -0.98547,-0.173116 -0.44819,0.06396 -0.90345,0.305658 -1.36633,0.724506 -0.45188,0.404208 -0.87195,0.986759 -1.25987,1.747698 -0.3751,0.759111 -0.66445,1.662774 -0.86765,2.710947 -0.0292,-0.570751 -0.0316,-1.047565 -0.008,-1.429888 0.022,-0.395132 0.0603,-0.857539 0.11524,-1.388034 0.0897,-0.744517 0.12019,-1.219312 0.091,-1.424196 -0.0256,-0.179283 -0.0941,-0.293732 -0.20567,-0.343133 -0.11159,-0.04943 -0.2958,-0.05567 -0.55191,-0.01912 -0.47379,0.06762 -0.83205,0.210264 -1.07538,0.427876 -0.23234,0.203022 -0.37958,0.498448 -0.44183,0.886253 -0.25999,1.565858 -0.27117,3.180989 -0.0336,4.845702 0.16082,1.126882 0.37353,1.932622 0.63872,2.417418 0.27798,0.48298 0.66061,0.690079 1.14721,0.620633 0.39696,-0.05665 0.67007,-0.20051 0.82011,-0.430979 0.16101,-0.245108 0.26904,-0.67874 0.32401,-1.300695 0.0678,-0.715251 0.18534,-1.450586 0.35192,-2.206068 0.17937,-0.757309 0.38311,-1.387293 0.61184,-1.890325 0.22874,-0.503022 0.43941,-0.768398 0.63149,-0.795811 0.14086,-0.0201 0.22552,0.07261 0.25477,0.2775 0.0366,0.256105 0.0625,0.800876 0.077,1.635042 0.004,0.940263 0.0396,1.653826 0.10904,2.140435 0.0822,0.576242 0.25546,1.054525 0.51883,1.435053 0.27435,0.36591 0.62285,0.518675 1.04542,0.458369 0.40977,-0.05848 0.6897,-0.202576 0.83974,-0.433045 0.16284,-0.232307 0.27088,-0.665941 0.32401,-1.300694 0.0806,-0.808549 0.22415,-1.5872 0.43098,-2.335255 0.20681,-0.748163 0.43356,-1.355157 0.68058,-1.821596 0.24518,-0.479248 0.45106,-0.730717 0.61753,-0.754475 0.14086,-0.0201 0.22604,0.07209 0.25528,0.276982 0.0439,0.307326 0.04,0.876373 -0.0114,1.706877 -0.0477,0.947474 -0.046,1.600494 0.005,1.959051 0.10234,0.717104 0.3476,1.24413 0.73536,1.580783 0.38594,0.323842 0.90549,0.438912 1.55856,0.34571 0.80674,-0.115134 1.49242,-0.43522 2.05776,-0.960147 0.20996,-0.191313 0.40898,-0.403045 0.60254,-0.624766 0.0632,0.09408 0.12338,0.192469 0.19431,0.275956 0.46821,0.534117 1.11844,0.741996 1.95078,0.623209 1.05288,-0.150261 2.08063,-1.02809 3.08353,-2.616375 0.81712,1.333563 2.03783,1.885484 3.66231,1.653646 0.84515,-0.120615 1.56294,-0.445 2.15388,-0.973581 0.20039,-0.17925 0.39002,-0.376854 0.57464,-0.582399 0.10872,0.285978 0.22884,0.51853 0.36432,0.683171 0.23227,0.254304 0.54716,0.353269 0.94413,0.296616 0.39696,-0.05665 0.67057,-0.200097 0.82062,-0.430458 0.161,-0.245105 0.26904,-0.678739 0.32401,-1.300704 0.0806,-0.808538 0.22416,-1.58709 0.43098,-2.335254 0.20682,-0.748155 0.43356,-1.355158 0.68058,-1.821596 0.24519,-0.479249 0.45106,-0.730717 0.61753,-0.754475 0.14085,-0.0201 0.22606,0.0722 0.25528,0.276981 0.0402,0.281726 0.0566,0.945865 0.0491,1.992127 -0.0112,1.203688 0.0199,2.061787 0.093,2.574007 0.0621,0.435389 0.20474,0.748169 0.42788,0.938441 0.22315,0.190282 0.54584,0.255132 0.96842,0.194824 0.44818,-0.06396 0.7539,-0.212121 0.91674,-0.444418 0.17381,-0.246933 0.22603,-0.613578 0.15658,-1.100188 -0.12244,-0.857966 -0.19467,-1.637966 -0.21652,-2.340424 -0.0237,-0.715269 -0.0274,-1.472809 -0.0109,-2.272219 0.009,-0.942091 -0.01,-1.579594 -0.0574,-1.91254 -0.0585,-0.409778 -0.21092,-0.701588 -0.45785,-0.875404 -0.23596,-0.188454 -0.55865,-0.253293 -0.96842,-0.194814 -0.42257,0.06031 -0.86928,0.274185 -1.33945,0.64182 -0.45738,0.365789 -0.89916,0.931661 -1.3255,1.698083 -0.41535,0.751793 -0.75647,1.702221 -1.02371,2.85099 -0.10051,-0.704303 -0.17903,-1.392079 -0.23564,-2.063435 1.43811,-2.099853 2.43598,-3.895427 2.99413,-5.386237 0.528,-1.427082 0.71817,-2.75794 0.57877,-3.99562 0.0912,-0.798519 0.16521,-1.6368 0.20206,-2.562117 l 2.42414,-2.184886 c 0.10056,0.363115 0.21133,0.664438 0.33435,0.889354 0.27799,0.482979 0.66061,0.690079 1.14721,0.620633 0.39696,-0.05665 0.67007,-0.200501 0.82011,-0.43098 0.16101,-0.245107 0.26904,-0.678224 0.32401,-1.300179 0.0806,-0.808544 0.22468,-1.587109 0.4315,-2.335258 0.21962,-0.749977 0.44636,-1.357499 0.68058,-1.822112 0.24519,-0.479236 0.45107,-0.730719 0.61753,-0.754475 0.14086,-0.0201 0.22604,0.07261 0.25528,0.277502 0.0402,0.28171 0.0566,0.945771 0.0491,1.992127 -0.0111,1.203673 0.0199,2.061268 0.093,2.573488 0.0621,0.435379 0.20474,0.748159 0.42788,0.938441 0.22315,0.190281 0.54585,0.255645 0.96842,0.195339 0.44819,-0.06396 0.75391,-0.212112 0.91674,-0.444418 0.17382,-0.246934 0.22602,-0.613588 0.15658,-1.100187 -0.12245,-0.858011 -0.19467,-1.638489 -0.21653,-2.340948 -0.0237,-0.715253 -0.0274,-1.472298 -0.0109,-2.271695 0.009,-0.942083 -0.01,-1.579604 -0.0574,-1.912545 -0.0585,-0.409764 -0.21092,-0.70159 -0.45785,-0.875398 -0.23596,-0.188453 -0.55917,-0.253816 -0.96893,-0.195337 -0.42258,0.06031 -0.86877,0.274196 -1.33894,0.641821 -0.45738,0.365799 -0.89916,0.932182 -1.3255,1.698604 -0.42633,0.766411 -0.77225,1.730247 -1.03767,2.891813 -0.0292,-0.570739 -0.0329,-1.053372 -0.0109,-1.44849 0.022,-0.395128 0.0603,-0.858053 0.11524,-1.388546 0.0897,-0.744507 0.12019,-1.219315 0.0909,-1.424203 -0.0256,-0.179268 -0.0941,-0.293727 -0.20567,-0.343131 -0.11158,-0.0494 -0.2958,-0.05567 -0.5519,-0.01912 -0.4738,0.06762 -0.83207,0.210226 -1.07539,0.427881 -0.23235,0.203021 -0.37958,0.498445 -0.44183,0.886251 -0.23275,1.401769 -0.2549,2.845357 -0.0889,4.32635 -0.65915,0.600863 -1.32526,1.229585 -2.00401,1.910997 l 0.0584,-3.164151 c 0.0643,-1.929894 0.0736,-3.054861 0.0279,-3.374987 -0.0256,-0.179276 -0.10168,-0.298766 -0.22789,-0.359151 -0.12622,-0.06038 -0.33646,-0.06994 -0.63097,-0.02791 -0.42258,0.06031 -0.73109,0.189521 -0.92501,0.387058 -0.18113,0.1957 -0.29551,0.492634 -0.34313,0.891418 -0.14469,1.183534 -0.32734,2.189772 -0.54881,3.01842 -0.20865,0.82681 -0.43313,1.453287 -0.67282,1.879472 -0.2269,0.424369 -0.43631,0.650582 -0.62839,0.677995 -0.2689,0.03838 -0.43802,-0.185714 -0.50746,-0.67231 -0.0439,-0.307332 -0.0614,-0.703802 -0.0522,-1.188559 0.007,-0.497571 0.0252,-1.015827 0.0527,-1.55546 0.022,-0.395128 0.0631,-0.83912 0.1235,-1.331185 0.0568,-0.609152 0.0777,-0.964674 0.063,-1.067118 -0.0256,-0.179277 -0.10244,-0.305599 -0.23048,-0.378788 -0.11524,-0.07502 -0.31359,-0.0924 -0.59531,-0.05219 -0.4994,0.07127 -0.85264,0.206817 -1.05937,0.406177 -0.20674,0.199356 -0.34638,0.499832 -0.41961,0.902271 -0.1666,0.938403 -0.25631,1.820298 -0.26924,2.645316 -0.0123,0.680212 0.0408,1.424486 0.13488,2.208651 -0.23214,0.321612 -0.44535,0.589434 -0.63304,0.782897 -0.35493,0.35118 -0.79479,0.564305 -1.31981,0.639234 -0.33293,0.04751 -0.61722,-0.02341 -0.85318,-0.211869 -0.23777,-0.201259 -0.43901,-0.557989 -0.60358,-1.07022 1.16556,-2.178523 2.02766,-4.333155 2.58589,-6.464204 0.55823,-2.131049 0.72855,-3.958525 0.51108,-5.482353 -0.15168,-1.062841 -0.44729,-1.850387 -0.88625,-2.362645 -0.32096,-0.394993 -0.69435,-0.617692 -1.12035,-0.667144 z m -0.59479,1.970422 c 0.35854,-0.05117 0.60731,0.409658 0.7462,1.382862 0.17727,1.242117 0.10462,2.656925 -0.21755,4.244701 -0.32401,1.574983 -0.83323,3.176906 -1.52859,4.804875 -0.1809,-1.450649 -0.24298,-2.983947 -0.18604,-4.599202 0.0569,-1.615263 0.19529,-2.98055 0.41496,-4.096391 0.21967,-1.115838 0.47649,-1.694812 0.77102,-1.736845 z m -14.02654,3.256132 c 0.28172,-0.04021 0.47664,0.317292 0.58446,1.072803 0.095,0.665883 0.009,1.436091 -0.25838,2.310453 -0.25623,0.859731 -0.71539,1.669961 -1.37769,2.43086 -0.007,-1.057333 0.0315,-2.0231 0.11575,-2.897498 0.0953,-0.889022 0.22418,-1.587233 0.38706,-2.093929 0.17385,-0.521318 0.35673,-0.795278 0.5488,-0.822689 z m 6.88744,7.033162 c 0.23049,-0.03289 0.42052,0.01809 0.5705,0.15348 0.16097,0.120757 0.25881,0.302926 0.29353,0.546219 0.0676,0.473802 -0.0907,0.920833 -0.47491,1.341521 -0.3842,0.420686 -0.94128,0.774861 -1.67122,1.06195 l -0.005,-0.03824 c -0.11148,-0.781121 -0.0467,-1.470228 0.19482,-2.066539 0.25436,-0.598151 0.61865,-0.930773 1.09244,-0.99839 z m -14.5862,1.944585 -0.20619,3.635437 c -0.0367,0.567069 -0.15934,1.03559 -0.36794,1.405082 -0.20859,0.36949 -0.45365,0.574226 -0.73535,0.61443 -0.28172,0.0402 -0.51977,-0.02391 -0.71366,-0.192234 -0.14937,-0.140354 -0.24587,-0.377076 -0.31057,-0.671794 0.0199,-0.18369 0.0199,-0.379975 -0.0109,-0.595312 -0.0181,-0.126635 -0.0476,-0.236511 -0.0847,-0.334346 -0.002,-0.455407 0.0479,-0.903778 0.16278,-1.343071 0.17754,-0.67864 0.46292,-1.241704 0.85628,-1.689819 0.40434,-0.462761 0.87426,-0.738815 1.41025,-0.828373 z m 28.81375,4.95474 v 0.001 c 0.16622,-0.0032 0.2083,0.245877 0.22738,0.50488 0,0 5e-4,0.003 5.1e-4,0.0031 5.5e-4,0.0048 0.0138,0.128785 0.0222,0.335385 1.4e-4,0.0054 8.8e-4,0.01384 0.001,0.01912 2e-5,6.44e-4 -5.3e-4,0.0014 -5.2e-4,0.0021 9.2e-4,0.02439 -2e-4,0.06294 5.2e-4,0.0894 3.4e-4,0.0049 6.9e-4,0.009 10e-4,0.01395 0.11866,1.753505 -0.9064,4.695105 -1.34048,5.853907 -0.0261,0.096 -0.0911,0.307562 -0.20257,0.531754 -4.1e-4,9.97e-4 -0.0114,0.03048 -0.0114,0.03048 -3.2e-4,-0.0017 -2.1e-4,-0.0035 -5.2e-4,-0.0052 -0.0566,0.110231 -0.12271,0.217377 -0.19999,0.303863 0,0 -0.21291,-1.654688 0.13436,-4.10208 0.004,-0.02934 0.008,-0.0547 0.0124,-0.08268 0.0688,-0.578991 0.14759,-1.086985 0.20774,-1.380276 1.1e-4,-0.0017 4.1e-4,-0.0033 5.2e-4,-0.0052 2e-5,-0.003 2.8e-4,-0.0047 5.2e-4,-0.0078 4.4e-4,-0.0021 0.001,-0.0056 0.002,-0.0078 4.6e-4,-0.0021 8e-4,-0.003 0.002,-0.0041 v -5.16e-4 c 10e-4,-0.0061 0.0163,-0.08739 0.0424,-0.201023 0.002,-0.01062 0.004,-0.01449 0.006,-0.02584 0.0126,-0.05489 0.0243,-0.103873 0.0243,-0.103873 l 0.006,-0.0026 c 0.10308,-0.408097 0.32011,-1.099908 0.72399,-1.534276 0.14798,-0.159155 0.25869,-0.224249 0.34106,-0.225822 z m -7.12721,2.25774 c 0.28172,-0.04021 0.47664,0.317282 0.58446,1.072806 0.095,0.665775 0.009,1.436081 -0.25838,2.310451 -0.25623,0.859744 -0.71539,1.669963 -1.3777,2.430858 -0.007,-1.057342 0.031,-2.023099 0.11524,-2.897496 0.0952,-0.889034 0.2247,-1.586721 0.38758,-2.093415 0.17384,-0.521331 0.35672,-0.795791 0.5488,-0.823204 z m -6.29471,2.66444 c -0.10931,8.52e-4 -0.22313,0.01 -0.34158,0.02687 -0.52502,0.07493 -0.94466,0.29159 -1.25935,0.650086 -0.30372,0.343869 -0.42363,0.739853 -0.35967,1.188042 0.064,0.448189 0.24851,0.781175 0.55397,0.998903 0.30364,0.204937 0.72463,0.269001 1.26246,0.192245 0.55062,-0.07858 0.97103,-0.288928 1.26193,-0.630969 0.28909,-0.354842 0.3971,-0.788058 0.32402,-1.300179 -0.0603,-0.422579 -0.25394,-0.728278 -0.58137,-0.916749 -0.24554,-0.141247 -0.5325,-0.210952 -0.86041,-0.208249 z m -21.827095,0.04547 c -0.439027,-0.0092 -0.892218,0.0196 -1.359606,0.0863 -1.254924,0.179096 -2.321156,0.533633 -3.199288,1.064018 -0.865331,0.528538 -1.496871,1.187211 -1.893942,1.975588 -0.384256,0.786548 -0.51037,1.640643 -0.378789,2.562631 0.1261,0.883577 0.449733,1.595555 0.971001,2.135273 0.532256,0.525088 1.130212,0.916574 1.794205,1.174602 0.676809,0.256198 1.535752,0.505858 2.576587,0.749308 0.812176,0.197676 1.444956,0.375398 1.898592,0.532786 0.451822,0.144586 0.841514,0.356727 1.168922,0.636657 0.325579,0.267121 0.51974,0.618292 0.581877,1.05368 0.100512,0.704294 -0.128267,1.298659 -0.686264,1.783356 -0.559826,0.471877 -1.384265,0.785684 -2.472718,0.941022 -1.050035,0.149855 -1.889453,0.125829 -2.518709,-0.07183 -0.61644,-0.199479 -0.965758,-0.586983 -1.047998,-1.163234 -0.0201,-0.140863 -0.03277,-0.276303 -0.03824,-0.406172 0.0073,-0.131717 0.0073,-0.223191 -10e-7,-0.274402 0.01101,-0.197577 -0.0022,-0.424476 -0.03876,-0.680581 -0.04021,-0.281716 -0.181512,-0.496708 -0.42478,-0.644925 -0.243279,-0.148206 -0.537921,-0.197654 -0.883668,-0.148311 -0.473791,0.06762 -0.806017,0.304471 -0.996321,0.710551 -0.190306,0.40608 -0.23539,0.961228 -0.134876,1.665532 0.190062,1.331766 0.844009,2.251096 1.961637,2.757969 1.115801,0.494072 2.525581,0.619785 4.228683,0.376728 1.920796,-0.274125 3.393291,-0.896132 4.417821,-1.865524 1.03552,-0.984022 1.44554,-2.231364 1.2299,-3.742403 -0.11514,-0.806746 -0.42333,-1.455299 -0.9245,-1.945621 -0.48835,-0.49215 -1.04992,-0.856364 -1.684646,-1.092436 -0.634737,-0.23607 -1.467148,-0.483477 -2.497007,-0.741564 -0.85242,-0.205004 -1.518792,-0.390538 -1.999877,-0.55707 -0.481075,-0.166532 -0.900097,-0.400913 -1.256771,-0.702799 -0.343858,-0.303715 -0.550671,-0.69885 -0.620118,-1.185459 -0.104167,-0.729904 0.103628,-1.334113 0.62322,-1.813319 0.53056,-0.493833 1.346654,-0.81952 2.447912,-0.976685 0.781121,-0.111477 1.454286,-0.06365 2.019515,0.143143 0.565218,0.206789 0.885975,0.578894 0.962731,1.116724 0.01462,0.102442 0.0301,0.3483 0.04651,0.737941 -0.0092,0.210377 0.0035,0.437279 0.03824,0.680574 0.04021,0.281726 0.184059,0.50986 0.430982,0.683688 0.259719,0.171879 0.555889,0.234059 0.888829,0.186544 0.4738,-0.06762 0.80323,-0.323932 0.98806,-0.768423 0.18482,-0.444501 0.21952,-1.070149 0.10438,-1.876894 -0.11696,-0.819547 -0.45244,-1.477175 -1.00665,-1.973008 -0.54139,-0.497541 -1.221721,-0.824927 -2.04122,-0.982365 -0.41067,-0.08512 -0.835834,-0.132378 -1.274858,-0.141594 z m 31.510745,3.829738 c 0.0324,1.29107 0.12586,2.54533 0.29817,3.752746 0.0549,0.384702 0.10757,0.690045 0.16072,1.012339 -0.26094,0.359936 -0.50895,0.67744 -0.73226,0.911578 -0.37505,0.393244 -0.83792,0.629378 -1.38855,0.707959 -0.67867,0.09686 -1.21696,-0.100592 -1.61385,-0.592725 -0.38408,-0.493971 -0.67087,-1.407082 -0.86093,-2.738848 -0.0512,-0.358557 -0.10995,-0.859962 -0.1757,-1.503781 l 2.34353,-0.334354 c 1.19928,-0.171154 1.85018,-0.578664 1.96887,-1.214914 z" />
    <path
       style="font-weight:bold;font-size:7.76111px;font-family:Montserrat;-inkscape-font-specification:'Montserrat Bold';letter-spacing:-0.306917px;word-spacing:1.85208px;stroke-width:0.144889;fill:#262626;fill-opacity:1"
       d="m 93.82934,60.709711 q -0.254865,-0.310782 -0.215449,-0.709518 0.03938,-0.398729 0.350191,-0.653595 0.309073,-0.253472 0.707811,-0.214057 0.398724,0.03942 0.653593,0.350187 0.25348,0.309077 0.214064,0.707805 -0.03938,0.398737 -0.348489,0.652209 -0.310772,0.254867 -0.709511,0.215461 -0.39873,-0.03942 -0.65221,-0.348492 z"
       id="text20" />
    <path
       d="M 91.402883,73.833649 V 67.90698 h 2.895601 q 1.117601,0 1.676401,0.423333 0.567267,0.423334 0.567267,1.117601 0,0.465666 -0.2286,0.8128 -0.2286,0.338667 -0.626534,0.524933 -0.397933,0.186267 -0.9144,0.186267 l 0.160867,-0.347133 q 0.5588,0 0.9906,0.186266 0.4318,0.177801 0.668867,0.533401 0.245533,0.3556 0.245533,0.872067 0,0.762 -0.601133,1.1938 -0.601134,0.423334 -1.769534,0.423334 z m 1.363134,-1.032934 h 1.600201 q 0.5334,0 0.804333,-0.169333 0.2794,-0.177801 0.2794,-0.558801 0,-0.372533 -0.2794,-0.550333 -0.270933,-0.186267 -0.804333,-0.186267 h -1.701801 v -0.999067 h 1.464734 q 0.499533,0 0.762,-0.169333 0.270934,-0.177801 0.270934,-0.533401 0,-0.347133 -0.270934,-0.516467 -0.262467,-0.1778 -0.762,-0.1778 h -1.363134 z m 4.028013,1.032934 2.641601,-5.926669 h 1.354669 l 2.65007,5.926669 h -1.43934 l -2.167466,-5.232402 h 0.541866 l -2.175933,5.232402 z m 1.3208,-1.270001 0.364067,-1.0414 h 3.048003 l 0.37253,1.0414 z m 6.86436,-0.08467 -0.0762,-1.583267 2.83633,-2.988734 h 1.524 l -2.55693,2.751667 -0.762,0.812801 z m -1.22767,1.354668 V 67.90698 h 1.36314 v 5.926669 z m 4.05554,0 -2.1082,-2.582335 0.89746,-0.973667 2.81094,3.556002 z m 3.16441,-3.539068 h 2.85327 v 1.0668 h -2.85327 z m 0.1016,2.438401 h 3.2258 v 1.100667 h -4.58893 V 67.90698 h 4.47887 v 1.100667 h -3.11574 z m 5.95842,1.202267 q -0.7112,0 -1.36314,-0.186267 -0.65193,-0.194733 -1.04986,-0.499534 l 0.46566,-1.032933 q 0.381,0.270933 0.89747,0.448733 0.52493,0.169334 1.05833,0.169334 0.4064,0 0.65194,-0.0762 0.254,-0.08467 0.37253,-0.228601 0.11853,-0.143933 0.11853,-0.3302 0,-0.237066 -0.18626,-0.372533 -0.18627,-0.143934 -0.49107,-0.2286 -0.3048,-0.09313 -0.67733,-0.169334 -0.36407,-0.08467 -0.7366,-0.2032 -0.36407,-0.118533 -0.66887,-0.3048 -0.3048,-0.186267 -0.49953,-0.491067 -0.18627,-0.3048 -0.18627,-0.778933 0,-0.508001 0.27093,-0.922867 0.2794,-0.423334 0.82974,-0.668867 0.5588,-0.254 1.397,-0.254 0.5588,0 1.10067,0.135466 0.54186,0.127 0.95673,0.389467 l -0.42333,1.041401 q -0.41487,-0.237067 -0.82974,-0.347134 -0.41487,-0.118533 -0.8128,-0.118533 -0.39793,0 -0.65193,0.09313 -0.254,0.09313 -0.36407,0.245534 -0.11007,0.143933 -0.11007,0.338666 0,0.2286 0.18627,0.372534 0.18627,0.135467 0.49107,0.220133 0.3048,0.08467 0.66886,0.169334 0.37254,0.08467 0.7366,0.194733 0.37254,0.110067 0.67734,0.296333 0.3048,0.186267 0.49107,0.491067 0.19473,0.3048 0.19473,0.770467 0,0.499534 -0.2794,0.914401 -0.2794,0.414867 -0.8382,0.668867 -0.55034,0.254 -1.397,0.254 z"
       id="text1"
       style="font-weight:bold;font-size:8.46667px;font-family:Montserrat;-inkscape-font-specification:'Montserrat Bold';letter-spacing:-0.306917px;word-spacing:1.85208px;stroke-width:0.25;fill:#262626;fill-opacity:1"
       transform="rotate(-7.2383696)"
       aria-label="BAKES" />
    <path
       style="font-weight:bold;font-size:7.76111px;font-family:Montserrat;-inkscape-font-specification:'Montserrat Bold';letter-spacing:-0.306917px;word-spacing:1.85208px;stroke-width:0.144889;fill:#262626;fill-opacity:1"
       d="m 131.24707,54.722874 q -0.25486,-0.310782 -0.21545,-0.709518 0.0394,-0.398729 0.35019,-0.653595 0.30908,-0.253472 0.70782,-0.214057 0.39872,0.03942 0.65359,0.350187 0.25348,0.309077 0.21406,0.707805 -0.0394,0.398737 -0.34849,0.652209 -0.31077,0.254867 -0.70951,0.215461 -0.39873,-0.03942 -0.65221,-0.348492 z"
       id="path1" />
  </g>
</svg>
